<svg xmlns="http://www.w3.org/2000/svg" xmlns:xlink="http://www.w3.org/1999/xlink" width="500" zoomAndPan="magnify" viewBox="0 0 375 374.999991" height="500" preserveAspectRatio="xMidYMid meet" version="1.0"><defs><clipPath id="b029379a5d"><path d="M 42.945312 0.0703125 L 318.753906 0.0703125 L 318.753906 375 L 42.945312 375 Z M 42.945312 0.0703125 " clip-rule="nonzero"/></clipPath><clipPath id="fb15d55829"><path d="M 66 50.3125 L 131.972656 50.3125 L 131.972656 216.0625 L 66 216.0625 Z M 66 50.3125 " clip-rule="nonzero"/></clipPath><clipPath id="b87d0424bd"><path d="M 131.25 131.25 L 160.332031 131.25 L 160.332031 160.332031 L 131.25 160.332031 Z M 131.25 131.25 " clip-rule="nonzero"/></clipPath><clipPath id="6b85c6ce15"><path d="M 145.792969 131.25 C 137.761719 131.25 131.25 137.761719 131.25 145.792969 C 131.25 153.824219 137.761719 160.332031 145.792969 160.332031 C 153.824219 160.332031 160.332031 153.824219 160.332031 145.792969 C 160.332031 137.761719 153.824219 131.25 145.792969 131.25 Z M 145.792969 131.25 " clip-rule="nonzero"/></clipPath></defs><g clip-path="url(#b029379a5d)"><path fill="#ff0000" d="M 317.265625 264.292969 C 316.566406 268.382812 313.683594 280.496094 307.5625 295.34375 C 305.136719 301.25 302.191406 307.589844 298.671875 314.027344 C 292.617188 325.09375 284.867188 336.449219 275.074219 346.417969 C 262.585938 359.140625 247.417969 368.398438 230.902344 374.296875 C 236.597656 370.996094 245.261719 366.554688 250.371094 361.4375 C 260.195312 351.617188 266.390625 331.851562 262.871094 317.617188 C 259.542969 304.15625 246.316406 297.574219 239.8125 285.171875 C 235.132812 276.242188 234.527344 265.46875 236.246094 255.453125 C 237.972656 245.429688 242.445312 236.804688 248.25 226.660156 C 235.414062 231.066406 223.765625 239.210938 214.980469 249.945312 C 209.578125 256.546875 205.972656 263.816406 204.507812 272.363281 C 202.140625 286.160156 206.796875 300.542969 213.152344 312.882812 C 189.789062 300.28125 169.003906 281.539062 156.269531 257.492188 C 149.859375 245.378906 145.664062 231.945312 144.15625 218.1875 C 143.414062 211.445312 143.320312 204.621094 143.953125 197.867188 C 144.570312 191.214844 146.828125 184.933594 147.75 178.484375 C 137.714844 186.167969 129.617188 198.761719 123.800781 210.070312 C 117.808594 221.703125 113.695312 234.40625 111.824219 247.476562 C 108.027344 274.058594 113.511719 301.980469 127.023438 324.847656 C 111.570312 312.75 98.15625 297.808594 87.59375 280.917969 C 92.433594 313.914062 107.625 344.960938 129.847656 366.832031 C 132.523438 369.460938 135.355469 371.90625 138.328125 374.15625 C 138.789062 374.507812 139.253906 374.847656 139.722656 375.183594 C 117.957031 368.265625 97.757812 356.222656 81.863281 339.277344 C 81.449219 338.839844 80.714844 338.046875 79.730469 336.921875 C 76.960938 333.761719 72.207031 327.988281 67.015625 320.050781 C 54.894531 301.515625 40.398438 271.21875 43.328125 235.132812 C 46.242188 199.257812 62.953125 176.617188 66.125 172.054688 C 66.125 172.054688 62.371094 183.988281 63.640625 210.734375 C 63.675781 211.492188 63.730469 212.238281 63.78125 212.984375 C 66.835938 201.746094 71.234375 190.910156 76.648438 180.816406 C 90.375 155.273438 111.039062 137.324219 130.257812 117.09375 C 145.902344 100.613281 160.410156 82.289062 167.464844 59.382812 C 173.058594 41.199219 175.796875 21.308594 174.800781 2.101562 C 174.765625 1.425781 174.730469 0.746094 174.671875 0.0664062 C 184.804688 4.433594 226.945312 55.5 220.910156 117.007812 C 219.640625 129.902344 216.957031 138.722656 201.359375 160.152344 C 186.378906 180.746094 181.082031 185.175781 179.207031 200.917969 C 177.648438 214 182.421875 222.433594 182.421875 222.433594 C 184.996094 174.828125 221.027344 177.554688 237.539062 143.75 C 250.757812 116.707031 244.085938 88.90625 243.914062 88.441406 C 284.675781 122.058594 309.273438 188.003906 309.273438 188.003906 C 309.273438 188.003906 323.246094 229.175781 317.265625 264.292969 " fill-opacity="1" fill-rule="nonzero"/></g><g clip-path="url(#fb15d55829)"><path fill="#ff0000" d="M 78.175781 80.925781 C 78.175781 80.953125 78.175781 80.976562 78.175781 81.007812 L 78.121094 81.089844 C 78.148438 81.035156 78.148438 80.976562 78.175781 80.925781 Z M 66.683594 114.746094 C 67.355469 118.089844 68.804688 122.128906 71.035156 126.859375 C 72.09375 129.015625 73.238281 131.117188 74.4375 133.164062 C 80.074219 142.261719 82.863281 146.878906 82.863281 147.074219 C 83.78125 148.566406 84.816406 150.863281 86.015625 153.960938 C 87.046875 157.222656 87.742188 160.15625 88.050781 162.808594 C 88.246094 164.523438 88.414062 166.15625 88.523438 167.648438 C 88.691406 171.574219 88.832031 174.121094 88.886719 175.308594 L 88.46875 176.996094 C 88.414062 177.160156 88.523438 177.355469 88.746094 177.605469 L 88.773438 177.578125 C 88.96875 177.300781 89.164062 177.023438 89.359375 176.746094 C 89.390625 176.773438 89.417969 176.773438 89.445312 176.804688 L 89.472656 176.746094 C 89.5 176.664062 89.527344 176.582031 89.527344 176.496094 C 92.011719 172.875 93.878906 169.199219 95.164062 165.4375 C 95.804688 163.722656 96.335938 161.480469 96.726562 158.773438 C 96.976562 156.722656 97.058594 154.539062 96.976562 152.214844 C 96.890625 150.472656 96.585938 148.152344 96.027344 145.21875 C 95.804688 143.785156 94.96875 140.601562 93.488281 135.597656 C 92.457031 132.332031 91.789062 130.230469 91.425781 129.265625 C 87.660156 120.886719 85.402344 115.464844 84.621094 113.003906 C 83.976562 111.234375 83.390625 109.378906 82.917969 107.390625 C 91.507812 116.984375 97.367188 124.09375 100.460938 128.683594 C 105.035156 135.15625 107.851562 141.515625 108.886719 147.792969 C 109.304688 150.75 109.304688 153.875 108.886719 157.167969 C 108.605469 159.378906 108.160156 161.480469 107.574219 163.5 C 107.183594 164.992188 106.152344 167.898438 104.421875 172.128906 L 96.304688 190.1875 C 94.828125 193.921875 93.90625 196.964844 93.546875 199.285156 C 92.929688 202.6875 92.765625 205.757812 93.042969 208.4375 C 93.238281 210.570312 93.628906 212.726562 94.214844 214.9375 C 94.324219 215.796875 94.578125 216.238281 94.941406 216.238281 C 94.96875 216.238281 94.996094 216.238281 95.023438 216.210938 L 95.050781 216.183594 C 95.078125 215.214844 95.132812 214.273438 95.21875 213.363281 C 97.003906 208.300781 99.125 203.988281 101.605469 200.390625 C 102.527344 198.980469 103.753906 197.265625 105.289062 195.191406 C 113.179688 185.429688 117.839844 179.457031 119.289062 177.273438 C 121.996094 173.484375 124.144531 170.027344 125.816406 166.875 C 128.269531 162.117188 130.027344 157.691406 131.035156 153.546875 C 131.925781 149.480469 132.316406 146.023438 132.175781 143.175781 C 132.007812 139.054688 131.367188 135.210938 130.222656 131.699219 C 128.746094 127.824219 127.183594 124.507812 125.59375 121.742188 C 123.390625 117.898438 121.160156 114.386719 118.898438 111.207031 L 103.167969 89.910156 C 100.183594 85.457031 98.175781 81.945312 97.144531 79.347656 C 95.46875 75.613281 94.269531 71.4375 93.546875 66.875 C 93.347656 66.15625 93.097656 63.472656 92.792969 58.828125 L 92.570312 52.742188 C 92.625 52.109375 92.625 51.664062 92.625 51.417969 C 92.679688 51.085938 92.707031 50.699219 92.765625 50.308594 C 92.738281 50.558594 92.679688 50.835938 92.625 51.140625 C 92.597656 51 92.539062 50.917969 92.402344 50.917969 L 92.261719 50.972656 C 92.121094 51.085938 91.84375 51.332031 91.480469 51.71875 C 84.507812 55.507812 78.289062 63.890625 72.820312 76.914062 C 69.976562 83.632812 67.996094 90.492188 66.851562 97.515625 C 66.265625 101.472656 65.988281 104.625 66.070312 107.003906 C 66.097656 110.125 66.292969 112.699219 66.683594 114.746094 " fill-opacity="1" fill-rule="evenodd"/></g><g clip-path="url(#b87d0424bd)"><g clip-path="url(#6b85c6ce15)"><path fill="#ff0000" d="M 131.25 131.25 L 160.332031 131.25 L 160.332031 160.332031 L 131.25 160.332031 Z M 131.25 131.25 " fill-opacity="1" fill-rule="nonzero"/></g></g></svg>